<svg id="" role="img" class="animationlogo custom-logo animate__zoomIn" viewBox="0 0 345 76"
     xmlns="http://www.w3.org/2000/svg">
    <title>This svg file is the logo for the website</title>
    <path fill-rule="evenodd" clip-rule="evenodd"
          d="M112.641 0C107.788 0 100.857 1.28456 95.4083 5.43403C89.8621 9.68228 86.8923 15.4121 86.8923 22.622C86.8923 37.1472 97.9832 44.2624 110.364 44.2624C115.316 44.2624 119.773 42.9774 121.754 42.1882C122.942 41.5951 123.735 40.7061 124.13 39.7174C124.724 38.4318 125.516 34.8749 126.012 32.1108C126.21 31.0223 125.022 30.8273 124.724 31.7127C123.535 35.269 120.762 37.9353 118.287 39.2219C115.81 40.4088 113.336 40.7061 110.463 40.7061C100.955 40.7061 94.3192 32.01 94.3192 21.6343C94.3192 13.732 96.3 8.19915 101.154 5.03791C103.135 3.75233 106.104 2.76512 109.076 2.76512C112.84 2.76512 116.306 3.65458 118.684 5.23649C120.861 6.71962 122.149 8.29689 122.446 10.4725C122.645 11.8542 123.932 11.6572 123.932 10.2749C124.032 7.9018 124.13 5.92687 124.33 4.84191C124.527 3.55684 124.428 2.86543 123.138 2.07268C120.861 0.79018 117.296 0 112.641 0ZM26.9861 5.38146C29.2796 12.8904 33.4044 26.3946 38.1373 36.9497C39.624 40.4088 41.0081 41.0004 44.7727 42.0869C45.6643 42.3837 45.6643 43.3715 44.4756 43.3715C42.4154 43.3715 40.86 43.283 39.4518 43.2029H39.4518H39.4517H39.4516C38.2868 43.1367 37.2226 43.0762 36.0565 43.0762C34.875 43.0762 33.8288 43.1434 32.735 43.2137L32.7348 43.2138C31.5366 43.2908 30.2813 43.3715 28.7286 43.3715C27.6395 43.3715 27.5394 42.4815 28.332 42.287C31.502 41.3955 31.898 40.5055 31.502 38.4318C31.206 36.5557 30.0163 32.9957 28.6296 29.7367C28.332 28.8504 28.1345 28.553 27.5394 28.4532C26.9443 28.3555 26.2523 28.3555 20.9041 28.3555C16.1515 28.3555 15.3589 28.4532 14.9618 28.553C14.4678 28.6523 14.1697 28.8504 13.9707 29.3427C13.9257 29.4624 13.8648 29.616 13.7912 29.8018L13.7909 29.8026L13.7907 29.8031L13.7906 29.8032C13.3779 30.8451 12.5646 32.8982 11.8919 35.6641C11.3958 37.4446 11.0998 39.3218 12.0899 40.4088C12.685 41.0982 13.9707 41.5951 16.0525 42.0869C16.9436 42.287 16.8435 43.3715 15.7544 43.3715C13.8431 43.3715 12.3591 43.2867 10.9818 43.2079H10.9818H10.9817H10.9816H10.9816H10.9815H10.9814H10.9814H10.9813H10.9813C9.78869 43.1398 8.67609 43.0762 7.43535 43.0762C6.33343 43.0762 5.20618 43.1517 4.0919 43.2264C3.00296 43.2993 1.92641 43.3715 0.897978 43.3715C-0.190122 43.3715 -0.289649 42.287 0.600942 42.0869C2.28569 41.6929 3.67238 41.0004 4.46344 40.4088C5.65365 39.5183 7.23732 37.246 8.7225 33.8862C12.2345 25.8319 15.5115 17.6988 18.2108 10.9998L18.2114 10.9981C18.5575 10.1393 18.894 9.30402 19.2203 8.49552C19.5397 7.75317 19.7949 7.13889 20.0087 6.624C20.5909 5.22244 20.8672 4.55725 21.3001 4.04972L22.8838 2.17356C23.975 0.890547 24.7666 5.1444e-05 25.2616 5.1444e-05C25.8567 5.1444e-05 26.0548 0.393598 26.0548 0.987262C26.0548 1.77744 26.0548 2.37008 26.5493 3.95301C26.686 4.3992 26.8314 4.87496 26.9849 5.3776L26.9861 5.38146ZM16.4475 24.6994C16.8435 24.7986 17.3386 24.8954 21.3991 24.8954C25.3606 24.8954 26.0548 24.7986 26.5493 24.6016C26.8474 24.5013 26.8474 23.8099 26.4503 22.622L25.8284 20.7348L25.8283 20.7344C24.1071 15.5118 23.3693 13.2731 22.3887 10.0774C22.1928 9.28467 21.8952 9.28467 21.3001 10.6711C19.9139 13.6337 18.4303 17.1916 16.3485 22.9199C15.9524 24.0085 15.8545 24.6016 16.4475 24.6994ZM317.66 53.2261C317.002 53.241 316.137 53.2606 314.956 53.2606H307.842C304.902 53.2606 303.868 53.2095 303.358 53.0532C302.792 52.8978 302.375 52.7445 302.07 52.4349C301.757 52.1263 301.398 52.1768 301.398 52.7941C301.398 54.2754 301.254 55.7087 301.162 56.6157L301.162 56.6161L301.162 56.6166C301.12 57.036 301.089 57.3428 301.089 57.4895C301.089 58.0541 301.653 58.1578 301.811 57.6417C302.019 56.9719 302.527 55.9423 303.304 55.4783C304.414 54.8975 307.428 54.9058 308.651 54.9091C308.733 54.9094 308.807 54.9096 308.872 54.9096C309.541 54.9096 309.648 55.0639 309.648 55.9423C309.648 56.0459 309.654 56.1982 309.663 56.4264C309.692 57.1062 309.748 58.4589 309.748 61.1997V66.3064C309.748 70.1724 309.541 71.7708 309.442 72.4928C309.304 73.7146 308.174 74.0216 306.675 74.4284C306.544 74.4642 306.409 74.5008 306.271 74.5389C306.193 74.5606 306.114 74.5828 306.034 74.6057C305.52 74.76 305.52 75.2781 306.142 75.2781C307.279 75.2781 308.131 75.2318 308.918 75.1889C309.593 75.1522 310.219 75.1182 310.935 75.1182C311.976 75.1182 312.837 75.161 313.668 75.2023C314.443 75.2409 315.192 75.2781 316.037 75.2781C316.707 75.2781 316.764 74.76 316.246 74.6057C316.144 74.5719 316.046 74.5393 315.95 74.5077C314.146 73.9104 313.345 73.6452 313.099 72.0278C312.947 70.7897 312.947 69.5036 312.947 66.0494V61.1501C312.947 57.7475 313.048 55.9423 313.149 55.4783C313.2 55.0639 313.257 54.9096 313.924 54.9096C316.347 54.9096 317.537 55.0639 318.412 55.2708C319.697 55.6326 320.057 56.5084 320.421 57.4348C320.625 57.9019 321.088 57.7971 321.143 57.3331C321.155 57.1078 321.166 56.8904 321.176 56.6798C321.254 55.1087 321.313 53.9215 321.81 52.695C321.914 52.3332 321.555 52.1768 321.246 52.3853C320.575 52.8483 319.594 53.1569 318.665 53.2095C318.392 53.2095 318.068 53.2169 317.666 53.226L317.665 53.226L317.663 53.226L317.662 53.2261L317.661 53.2261L317.66 53.2261ZM282.734 54.7039C282.734 54.4438 282.682 53.9819 282.168 53.6227L282.155 53.6141C281.685 53.2988 280.704 52.6406 278.715 52.6406C276.495 52.6406 274.536 53.6733 273.299 54.9099C271.756 56.4045 271.343 58.0038 271.343 59.3467C271.343 62.0257 272.989 63.6762 276.495 64.9148C279.229 65.8923 281.24 67.182 281.24 69.9132C281.24 72.5442 279.846 73.8835 277.427 73.8835C275.415 73.8835 273.2 72.6454 272.53 71.2545C272.168 70.4829 272.168 70.0159 272.168 69.7093C272.112 69.2422 271.652 69.1932 271.495 69.5509C271.433 69.6934 271.351 69.8991 271.259 70.1277L271.258 70.13L271.258 70.1306L271.258 70.1311L271.258 70.1315C271.052 70.648 270.799 71.2796 270.623 71.5631C270.362 71.9233 270.105 72.4926 270.206 72.8549C270.415 73.5769 270.977 74.1978 271.909 74.815C272.889 75.377 274.229 75.745 275.878 75.745C277.577 75.745 279.383 75.1732 280.983 73.9867C282.374 72.9519 284.18 70.9975 284.18 68.1125C284.18 64.3977 281.547 63.2623 278.507 62.18C276.343 61.4085 274.229 60.3242 274.229 57.4893C274.229 55.426 275.518 54.241 277.269 54.241C278.715 54.241 279.901 54.7556 280.775 55.7831C281.444 56.5598 281.652 57.1781 281.703 57.5904C281.753 58.2103 282.427 58.2103 282.427 57.6421C282.427 56.8238 282.505 56.2057 282.558 55.7904L282.559 55.7838C282.565 55.7301 282.572 55.6798 282.577 55.6329C282.682 55.22 282.734 54.961 282.734 54.7039ZM228.19 56.0425C228.399 57.3332 228.399 58.3133 228.399 61.4083V66.9227C228.399 70.8961 228.243 71.9742 228.14 72.4929C227.786 73.912 226.23 74.2334 224.512 74.5886L224.428 74.6058C224.017 74.661 224.017 75.2782 224.584 75.2782C225.596 75.2782 226.447 75.2333 227.246 75.191L227.246 75.191C227.955 75.1535 228.622 75.1183 229.326 75.1183C230.733 75.1183 233.385 75.1678 235.736 75.2118L235.737 75.2118C237.608 75.2468 239.289 75.2782 239.999 75.2782C241.39 75.2782 241.698 75.2287 241.853 74.5562C242.162 73.009 242.367 71.0504 242.367 70.5323C242.367 70.1225 241.853 70.0673 241.698 70.4827C241.492 71.102 241.183 71.8736 240.772 72.3897C240.257 72.9078 239.641 73.2681 238.864 73.3692C238.089 73.5256 236.853 73.5767 235.617 73.5767C233.554 73.5767 232.417 73.4699 232.056 72.9078C231.695 72.3897 231.594 71.102 231.594 67.4899V65.0694C231.594 64.447 231.746 64.3975 232.522 64.3975H234.067C236.748 64.3975 238.038 64.7061 238.555 65.5835C238.864 66.1486 239.018 66.6162 239.068 66.9227C239.123 67.3371 239.689 67.2866 239.689 66.8721C239.689 63.8308 239.842 62.5421 239.945 61.7148C239.999 61.3551 239.641 61.2504 239.48 61.5084C239.328 61.7685 238.915 62.2335 238.296 62.4384C237.831 62.5927 236.647 62.747 233.757 62.747H232.675C232.59 62.739 232.512 62.7319 232.44 62.7254L232.439 62.7254L232.439 62.7253L232.438 62.7253C231.959 62.682 231.751 62.6633 231.662 62.5508C231.594 62.4653 231.594 62.3254 231.594 62.0792V59.2918C231.594 57.6929 231.647 56.3016 231.695 55.8366C231.798 55.0144 231.903 54.9097 232.986 54.9097H234.326C236.184 54.9097 237.109 54.9613 238.141 55.2709C239.123 55.5279 239.897 56.6644 240.101 57.7972C240.202 58.4144 240.874 58.3133 240.824 57.6418C240.719 56.3547 240.824 54.4436 241.079 53.2091C241.132 52.9511 240.977 52.8484 240.874 52.8484C240.824 52.8484 240.616 52.8979 240.358 53.0533C239.897 53.2091 238.141 53.2607 235.408 53.2607H230.098C229.311 53.2607 228.624 53.2236 227.926 53.1859C227.207 53.147 226.477 53.1075 225.614 53.1075C225.047 53.1075 224.994 53.6731 225.562 53.8284C226.851 54.1391 227.984 54.7037 228.19 56.0425ZM178.958 68.0041C178.958 71.8738 179.058 74.0894 179.112 74.5048C179.213 75.377 178.906 75.4839 178.595 75.4839C178.186 75.4839 177.566 75.118 177.203 74.815C176.583 74.2968 176.07 73.7808 175.968 73.6264C172.359 69.1375 166.534 62.0789 163.233 58.3646C163.079 58.2103 162.976 58.4141 162.926 58.8306C162.874 59.2915 162.874 60.223 162.874 62.4887V66.8724C162.874 72.9519 163.853 73.6264 164.936 74.0398L166.429 74.6055C166.843 74.7598 166.843 75.3259 166.172 75.2779C165.774 75.262 165.365 75.2397 164.945 75.2168L164.944 75.2168C164.061 75.1687 163.13 75.118 162.151 75.118C161.377 75.118 160.588 75.1639 159.856 75.2066L159.856 75.2066C159.223 75.2435 158.632 75.2779 158.131 75.2779C157.461 75.2779 157.461 74.815 157.925 74.6055L158.955 74.1978C159.778 73.8835 160.552 73.2683 160.808 72.4451C161.068 71.4604 161.275 68.2126 161.275 64.3977V59.0355C161.275 56.8179 161.068 56.3012 160.707 55.6329C160.088 54.5486 158.646 54.0857 157.561 53.7781C157.1 53.6733 157.1 53.1072 157.666 53.1072C158.422 53.1072 159.123 53.1632 159.789 53.2165C160.393 53.2649 160.969 53.311 161.534 53.311C161.945 53.311 162.358 53.311 162.976 53.2604C163.748 53.2093 163.902 53.2604 163.956 53.5159C164.108 54.0857 164.418 54.7039 165.295 55.7335C166.741 57.7473 171.02 62.9046 176.945 69.2422C177.306 69.6045 177.411 69.5509 177.411 69.09V64.0375C177.411 60.8408 177.256 59.1898 177.051 57.2834C176.793 54.8583 176.225 54.4438 173.698 53.7781C173.183 53.6733 173.288 53.1072 173.803 53.1072C174.48 53.1072 175.182 53.1435 175.903 53.1808C176.663 53.2201 177.443 53.2604 178.237 53.2604C178.934 53.2604 179.606 53.2188 180.248 53.179L180.249 53.1789C180.84 53.1423 181.406 53.1072 181.948 53.1072C182.568 53.1072 182.568 53.5701 182.051 53.7781C180.817 54.2916 179.833 54.8077 179.471 56.6646C179.213 58.1581 178.958 60.8903 178.958 64.2965V68.0041ZM133.695 58.882C133.695 56.0425 133.592 55.5795 133.382 55.1161C133.023 54.344 131.941 54.0302 131.012 53.7779C130.548 53.7237 130.548 53.1075 131.062 53.1075C132.216 53.1075 132.966 53.1553 133.629 53.1975C134.152 53.2309 134.62 53.2607 135.189 53.2607C135.928 53.2607 136.514 53.2258 137.126 53.1893C137.797 53.1493 138.499 53.1075 139.467 53.1075C140.086 53.1075 140.139 53.6731 139.621 53.7779C138.54 53.9817 138.025 54.344 137.714 54.858C137.043 55.7339 136.89 58.4144 136.89 61.975V65.7915C136.89 68.6243 137.614 70.6845 138.694 71.6161C139.621 72.544 141.272 73.5256 143.539 73.5256C144.725 73.5256 146.531 73.4699 147.819 72.079C149.162 70.8445 149.934 68.3667 149.934 63.6249V59.8069C149.934 57.4349 149.677 56.3547 149.417 55.6833C149.006 54.7037 148.132 54.2914 146.582 53.7779C146.117 53.6225 146.22 53.1075 146.686 53.1075C147.433 53.1075 148.167 53.1458 148.902 53.1841C149.637 53.2224 150.372 53.2607 151.119 53.2607C151.767 53.2607 152.386 53.2188 152.976 53.1788L152.976 53.1788L152.976 53.1788C153.514 53.1423 154.028 53.1075 154.519 53.1075C155.086 53.1075 155.138 53.6731 154.626 53.7779C153.747 53.9817 152.974 54.4436 152.564 55.5279C152.305 56.2004 152.151 57.2837 152.047 59.3981L151.79 65.4797C151.53 71.6161 147.819 75.7448 141.838 75.7448C139.004 75.7448 136.632 74.918 135.189 73.1612C134.211 71.9231 133.695 70.3263 133.695 67.3877V58.882ZM188.598 55.7834C188.805 56.8682 188.805 58.8304 188.805 61.9208V66.5104C188.805 69.6043 188.805 71.4602 188.548 73.009C188.34 73.9349 187.155 74.453 186.124 74.6058C185.608 74.7085 185.662 75.2782 186.227 75.2782C187.078 75.2782 187.841 75.2329 188.555 75.1906C189.183 75.1533 189.773 75.1183 190.352 75.1183C191.042 75.1183 191.686 75.155 192.357 75.1933C193.086 75.2348 193.847 75.2782 194.734 75.2782C195.352 75.2782 195.352 74.7085 194.888 74.6058C193.651 74.3467 192.57 73.9349 192.31 72.7478C192.001 71.4602 192.001 69.6043 192.001 66.5104V61.9208C192.001 58.8304 192.001 56.8682 192.259 55.6327C192.463 54.3951 193.651 53.9817 194.525 53.7779C195.043 53.6731 195.043 53.1075 194.423 53.1075C193.658 53.1075 193.038 53.1505 192.455 53.191C191.939 53.2269 191.452 53.2607 190.918 53.2607C190.2 53.2607 189.615 53.2277 188.988 53.1923C188.265 53.1515 187.486 53.1075 186.383 53.1075C185.761 53.1075 185.713 53.6731 186.124 53.7779C187.155 54.0302 188.29 54.4436 188.598 55.7834ZM211.45 72.4049L211.45 72.4054C211.163 73.1076 210.958 73.6069 210.769 73.9351C209.994 75.4323 209.323 76 209.117 76C208.86 76 208.706 75.7961 208.548 75.3771C207.869 73.5993 207.522 72.5995 206.979 71.036L206.979 71.0349L206.979 71.0348C206.781 70.4657 206.557 69.822 206.283 69.039C205.25 66.2025 203.602 61.8715 202.259 58.6764C200.919 55.3754 200.559 54.8583 199.271 54.1874L198.396 53.7781C197.927 53.5701 197.827 53.1072 198.549 53.1072C199.365 53.1072 200.022 53.1499 200.644 53.1902C201.2 53.2263 201.727 53.2605 202.312 53.2605C203.118 53.2605 203.898 53.2215 204.671 53.1829L204.671 53.1829C205.431 53.1449 206.185 53.1072 206.951 53.1072C207.571 53.1072 207.571 53.6228 207.107 53.7781L205.767 54.2916C204.43 54.8855 204.708 55.7146 205.372 57.6995L205.456 57.9502C206.951 62.3323 208.601 66.4084 210.146 69.8657C210.456 70.5836 210.61 70.6332 210.971 69.8657C212.571 66.5617 215.305 59.7565 216.028 57.4352C216.696 55.1669 216.334 54.5487 214.737 53.982L214.17 53.7781C213.757 53.6228 213.809 53.1072 214.326 53.1072C215.075 53.1072 215.782 53.1485 216.463 53.1883C217.092 53.2251 217.699 53.2605 218.294 53.2605C218.952 53.2605 219.61 53.2205 220.254 53.1814C220.872 53.1439 221.476 53.1072 222.056 53.1072C222.675 53.1072 222.625 53.5701 222.161 53.7781L221.026 54.2916C219.531 54.9099 218.757 56.148 216.799 60.3242C215.612 62.8505 214.374 65.5837 212.467 70.0159C212.029 70.9891 211.707 71.7779 211.45 72.4049ZM249.119 68.1612C249.119 69.7555 249.023 70.8952 248.959 71.6616C248.942 71.862 248.927 72.0369 248.917 72.1877C248.708 73.6813 248.243 74.089 246.287 74.6056C245.717 74.7599 245.822 75.2781 246.387 75.2781C247.097 75.2781 247.843 75.2395 248.603 75.2002H248.603L248.604 75.2002C249.39 75.1595 250.19 75.1181 250.978 75.1181C251.739 75.1181 252.501 75.1596 253.249 75.2003L253.249 75.2003C253.97 75.2395 254.678 75.2781 255.361 75.2781C255.978 75.2781 255.978 74.7599 255.41 74.6056C253.146 73.9863 252.78 73.5254 252.473 71.8734C252.371 71.2541 252.319 70.6849 252.319 69.0385V66.8725C252.319 65.8924 252.371 65.7913 252.628 65.7913C253.212 65.7913 253.795 65.7395 254.341 65.6908L254.341 65.6908L254.341 65.6908C254.568 65.6707 254.788 65.6511 254.999 65.6359C255.565 65.5838 255.925 65.6876 256.391 66.6666C257.936 69.6558 259.279 72.0794 261.185 73.8836C262.371 74.9179 264.329 75.5351 266.24 75.5351C267.32 75.5351 268.198 75.3256 268.402 75.2285C268.558 75.1733 268.507 74.8647 268.303 74.8152C268.093 74.7599 266.752 74.4018 265.051 73.0088C263.251 71.5633 260.718 68.3165 258.967 64.6569C258.761 64.1899 258.866 64.0376 259.123 63.8812L260.154 63.2134C261.083 62.6447 262.318 60.9922 262.318 58.8308C262.318 57.3331 261.957 52.794 254.224 53.0015C250.925 53.0015 246.749 53.5702 246.028 53.6735C245.41 53.7782 245.357 54.2917 246.028 54.3439C247.009 54.444 248.142 54.6004 248.504 54.9611C248.658 55.167 248.812 55.4261 248.917 56.0955C248.93 56.3309 248.951 56.5924 248.974 56.8849L248.974 56.8862L248.975 56.8868V56.887V56.8871V56.8874C249.038 57.6839 249.119 58.7102 249.119 60.0663V68.1612ZM252.319 58.3131C252.319 55.9422 252.371 55.2708 252.473 54.9611C252.576 54.6004 252.679 54.444 253.401 54.444C257.007 54.444 259.074 57.1777 259.074 60.2738C259.074 63.2134 256.856 64.1403 255.156 64.1403C254.071 64.1403 253.454 64.1403 252.78 64.0851C252.371 64.0376 252.319 63.8812 252.319 63.3146V58.3131ZM291.087 61.9208C291.087 58.8304 291.087 56.8682 290.879 55.7834C290.573 54.4436 289.433 54.0302 288.404 53.7779C287.991 53.6731 288.041 53.1075 288.664 53.1075C289.768 53.1075 290.548 53.1515 291.271 53.1923C291.898 53.2277 292.483 53.2607 293.201 53.2607C293.733 53.2607 294.22 53.2269 294.736 53.1911C295.319 53.1506 295.939 53.1075 296.704 53.1075C297.321 53.1075 297.321 53.6731 296.811 53.7779C295.931 53.9817 294.746 54.3951 294.54 55.6327C294.281 56.8682 294.281 58.8304 294.281 61.9208V66.5104C294.281 69.6043 294.281 71.4602 294.59 72.7478C294.851 73.9349 295.931 74.3467 297.171 74.6058C297.636 74.7085 297.636 75.2782 297.014 75.2782C296.13 75.2782 295.371 75.2349 294.643 75.1934L294.642 75.1933C293.971 75.1551 293.326 75.1183 292.634 75.1183C292.055 75.1183 291.464 75.1533 290.836 75.1906C290.121 75.233 289.358 75.2782 288.508 75.2782C287.938 75.2782 287.89 74.7085 288.404 74.6058C289.433 74.453 290.624 73.9349 290.828 73.009C291.087 71.4602 291.087 69.6043 291.087 66.5104V61.9208ZM335.228 69.09C335.228 70.9975 335.283 72.2335 335.59 72.8033C335.9 73.7312 336.571 74.0894 338.27 74.6055C338.733 74.7598 338.733 75.2779 338.114 75.2779C337.426 75.2779 336.673 75.2387 335.913 75.1991C335.139 75.1587 334.357 75.118 333.63 75.118C332.779 75.118 332.019 75.1579 331.259 75.1979C330.499 75.2379 329.738 75.2779 328.887 75.2779C328.323 75.2779 328.269 74.7598 328.734 74.6055C328.817 74.5793 328.903 74.5527 328.991 74.5255C329.936 74.2328 331.096 73.8739 331.567 73.2146C331.877 72.8033 332.083 71.7706 332.083 69.6045V66.9781C332.083 65.9444 331.93 65.4794 331.567 64.7584C330.275 62.18 328.94 59.8071 327.393 57.4351C327.271 57.2482 327.156 57.072 327.048 56.9059C325.605 54.6906 325.322 54.2558 323.835 53.7781C323.32 53.6227 323.265 53.1072 323.835 53.1072C324.625 53.1072 325.416 53.1532 326.13 53.1948C326.72 53.2291 327.258 53.2604 327.701 53.2604C328.378 53.2604 328.97 53.2241 329.578 53.1869C330.219 53.1475 330.877 53.1072 331.671 53.1072C332.289 53.1072 332.289 53.6227 331.828 53.7781L331.777 53.7959C329.911 54.4459 329.569 54.5648 330.483 56.3549C331.309 58.0544 332.909 60.8903 334.403 63.1085C334.66 63.4687 334.816 63.365 335.071 62.9552C336.159 61.25 337.853 58.4693 338.681 56.3549C339.405 54.7039 338.944 54.3437 337.34 53.7781C336.93 53.6733 336.98 53.1072 337.651 53.1072C338.353 53.1072 338.951 53.1462 339.543 53.1849C340.124 53.2228 340.699 53.2604 341.363 53.2604C341.835 53.2604 342.33 53.2249 342.844 53.1881C343.398 53.1484 343.973 53.1072 344.562 53.1072C345.072 53.1072 345.177 53.6227 344.662 53.7781C342.392 54.6002 342.032 55.0642 340.487 57.0759C338.63 59.4995 336.673 62.5924 335.794 64.2965C335.382 65.0691 335.228 65.7911 335.228 66.4579V69.09ZM54.6463 29.7369C54.6463 32.8303 54.4549 35.0328 54.3276 36.4969C54.2963 36.8565 54.269 37.1715 54.2492 37.4442C53.8532 40.3102 52.9636 41.0983 49.1986 42.0866C48.208 42.3839 48.307 43.3716 49.3966 43.3716C50.7592 43.3716 52.1939 43.3003 53.6532 43.2278L53.6534 43.2278L53.6535 43.2278C55.1637 43.1527 56.7004 43.0763 58.2107 43.0763C59.7004 43.0763 61.1898 43.1557 62.6241 43.2322C63.9557 43.3032 65.2398 43.3716 66.4323 43.3716C67.818 43.3716 67.62 42.3839 66.5319 42.0866C62.3698 40.9039 61.5797 40.0139 61.0836 36.8511C60.8846 35.6643 60.7876 34.5788 60.7876 31.4176V26.2814C60.7876 24.8955 60.8846 24.7983 61.5797 24.7983C62.9654 24.7983 64.3526 24.9958 65.4412 25.1923C66.1353 25.2932 66.9253 25.785 67.818 27.0695C68.3036 27.6811 69.2173 28.9367 70.4011 30.5636L70.4012 30.5638L70.4013 30.5639C73.8073 35.2447 79.4492 42.9982 83.5645 47.3246C93.7674 57.8968 102.482 61.75 111.397 61.75C118.328 61.75 124.269 58.7863 127.044 54.0427C127.737 52.8564 127.044 52.4618 126.25 53.2535C125.063 54.5355 121.991 57.5995 115.555 57.5995C106.443 57.5995 99.6096 53.7463 91.092 45.8425C82.2794 37.6428 76.7322 29.6392 73.0677 23.81C72.4716 22.9201 72.7696 22.525 73.4632 22.1309C74.4544 21.5367 75.3439 20.9431 75.939 20.4523C77.4247 19.266 80.0006 16.5981 80.0006 11.8539C80.0006 8.99108 79.307 0.296009 64.4506 0.691099C58.1117 0.691099 50.0907 1.7776 48.7035 2.07289C47.5149 2.273 47.7139 3.16298 48.8031 3.26073C50.5858 3.4593 52.7656 3.75253 53.4592 4.44651C53.7552 4.8416 54.0512 5.33444 54.2492 6.61899C54.5473 8.2971 54.6463 10.6707 54.6463 14.227V29.7369ZM60.7876 10.8657C60.7876 6.32319 60.8846 5.53404 60.9846 4.74386C61.1826 3.55704 61.4797 3.3595 62.7674 3.3595C69.8978 3.3595 73.7597 8.59341 73.7597 14.6221C73.7597 17.8827 72.2756 20.1539 70.5908 21.2414C68.5121 22.4262 66.4323 22.9201 61.5797 22.9201C61.532 22.9066 61.4871 22.8945 61.4448 22.8831L61.4447 22.883C60.8717 22.7286 60.7876 22.7059 60.7876 21.1427V10.8657ZM164.652 36.9497C159.927 26.408 155.808 12.9248 153.512 5.41018L153.505 5.3868L153.485 5.31967L153.479 5.29912C153.334 4.82538 153.196 4.37591 153.067 3.95301C152.57 2.37008 152.57 1.77744 152.57 0.987262C152.57 0.393598 152.374 5.1444e-05 151.779 5.1444e-05C151.282 5.1444e-05 150.491 0.890547 149.402 2.17356L147.818 4.04972C147.383 4.55754 147.107 5.2232 146.524 6.62639L146.524 6.62738L146.522 6.63081L146.522 6.63161C146.309 7.14494 146.055 7.75682 145.737 8.49552C145.433 9.24937 145.12 10.0265 144.799 10.8243C142.086 17.5565 138.781 25.7615 135.238 33.8862C133.755 37.246 132.17 39.5183 130.981 40.4088C130.19 41.0004 128.801 41.6929 127.118 42.0869C126.226 42.287 126.326 43.3715 127.416 43.3715C128.444 43.3715 129.521 43.2993 130.61 43.2263C131.724 43.1517 132.851 43.0762 133.952 43.0762C135.194 43.0762 136.307 43.1398 137.5 43.208C138.877 43.2867 140.36 43.3715 142.271 43.3715C143.361 43.3715 143.459 42.287 142.569 42.0869C140.488 41.5951 139.201 41.0982 138.609 40.4088C137.617 39.3218 137.912 37.4446 138.409 35.6641C139.08 32.9008 139.893 30.8489 140.307 29.8062C140.381 29.6184 140.443 29.4633 140.488 29.3427C140.686 28.8504 140.985 28.6523 141.477 28.553C141.876 28.4532 142.668 28.3555 147.423 28.3555C152.769 28.3555 153.463 28.3555 154.057 28.4532C154.653 28.553 154.849 28.8504 155.146 29.7367C156.533 32.9957 157.721 36.5557 158.018 38.4318C158.413 40.5055 158.018 41.3955 154.849 42.287C154.057 42.4815 154.156 43.3715 155.247 43.3715C156.799 43.3715 158.054 43.2908 159.252 43.2138L159.252 43.2138L159.252 43.2138C160.346 43.1434 161.392 43.0762 162.574 43.0762C163.74 43.0762 164.804 43.1367 165.968 43.2029C167.377 43.283 168.933 43.3715 170.993 43.3715C172.18 43.3715 172.18 42.3837 171.29 42.0869C167.526 41.0004 166.139 40.4088 164.652 36.9497ZM147.916 24.8954C143.858 24.8954 143.361 24.7986 142.965 24.6994C142.371 24.6016 142.469 24.0085 142.867 22.9199C144.945 17.1916 146.433 13.6337 147.818 10.6711C148.412 9.28467 148.711 9.28467 148.905 10.0774C149.87 13.226 150.602 15.4455 152.271 20.5052L152.271 20.5058L152.969 22.622C153.364 23.8099 153.364 24.5013 153.067 24.6016C152.57 24.7986 151.878 24.8954 147.916 24.8954ZM179.628 38.4321C180.022 36.9495 180.32 34.0876 180.32 25.9852V16.3019C180.32 10.2747 180.121 8.00243 179.923 6.42361C179.628 4.74396 178.931 4.04947 174.278 3.26083C173.488 3.16309 173.488 2.1733 174.376 2.07247C174.863 2.02251 175.461 1.95265 176.159 1.87106C179.581 1.47126 185.411 0.789974 192.403 0.789974C201.217 0.789974 207.061 2.36982 210.823 5.53363C214.688 8.89035 216.765 13.6335 216.765 20.154C216.765 29.737 212.408 34.7759 206.663 38.6296C199.832 43.0764 191.51 43.3712 188.541 43.3712C186.559 43.3712 184.183 43.274 182.498 43.1768C181.922 43.1768 181.372 43.1635 180.872 43.1514C179.997 43.1303 179.275 43.1129 178.834 43.1768C177.942 43.1768 176.654 43.1768 175.566 43.274C174.674 43.3712 174.477 42.188 175.368 41.9899C177.547 41.5949 179.033 40.6066 179.628 38.4321ZM186.858 5.53363C186.657 6.6191 186.461 9.1877 186.461 17.091V28.1556C186.461 34.1843 186.756 37.0493 187.055 38.038C187.352 38.9239 188.145 39.5181 188.638 39.6189C189.432 39.8164 191.51 40.014 193.293 40.014C197.256 40.014 201.712 39.124 204.385 37.1475C208.051 34.2816 210.033 29.2452 210.033 22.3296C210.033 11.3622 204.09 3.45889 190.819 3.45889C189.629 3.45889 188.638 3.55663 188.044 3.75264L188.039 3.75439C187.548 3.95392 187.054 4.15434 186.858 5.53363ZM223.695 17.7849C223.695 11.8539 223.695 8.10161 223.298 6.02481C222.703 3.4593 220.524 2.66603 218.543 2.1732C217.753 1.97463 217.85 0.890702 219.038 0.890702C221.162 0.890702 222.66 0.975817 224.05 1.05481C225.253 1.12321 226.376 1.18702 227.755 1.18702C228.778 1.18702 229.713 1.12162 230.705 1.05227C231.825 0.974002 233.017 0.890702 234.487 0.890702C235.674 0.890702 235.674 1.97463 234.685 2.1732C233.002 2.56932 230.723 3.3595 230.329 5.73261C229.833 8.10161 229.833 11.8539 229.833 17.7849V26.5767C229.833 32.5051 229.833 36.0609 230.426 38.5307C230.925 40.802 233.002 41.5947 235.381 42.0866C236.269 42.2872 236.269 43.3716 235.083 43.3716C233.383 43.3716 231.923 43.2916 230.523 43.2149C229.234 43.1442 227.994 43.0763 226.664 43.0763C225.553 43.0763 224.419 43.141 223.212 43.2098C221.841 43.288 220.375 43.3716 218.742 43.3716C217.65 43.3716 217.555 42.2872 218.543 42.0866C220.524 41.7908 222.8 40.802 223.198 39.0267C223.695 36.0609 223.695 32.5051 223.695 26.5767V17.7849ZM266.054 5.48948C268.357 13.0194 272.463 26.445 277.177 36.9497C278.656 40.4088 280.046 41.0004 283.808 42.0869C284.702 42.3837 284.702 43.3715 283.513 43.3715C281.454 43.3715 279.899 43.2831 278.491 43.203C277.325 43.1367 276.26 43.0762 275.094 43.0762C273.913 43.0762 272.868 43.1434 271.774 43.2137C270.576 43.2907 269.321 43.3715 267.767 43.3715C266.674 43.3715 266.577 42.4815 267.371 42.287C270.537 41.3955 270.937 40.5055 270.537 38.4318C270.24 36.5557 269.052 32.9957 267.666 29.7367C267.371 28.8504 267.171 28.553 266.577 28.4532C265.981 28.3555 265.288 28.3555 259.945 28.3555C255.187 28.3555 254.395 28.4532 253.999 28.553C253.502 28.6523 253.205 28.8504 253.009 29.3427C252.964 29.4641 252.902 29.6205 252.826 29.8101C252.412 30.854 251.599 32.9043 250.927 35.6641C250.433 37.4446 250.138 39.3218 251.129 40.4088C251.721 41.0982 253.009 41.5951 255.086 42.0869C255.981 42.287 255.878 43.3715 254.791 43.3715C252.88 43.3715 251.397 43.2866 250.02 43.2079C248.828 43.1398 247.716 43.0762 246.476 43.0762C245.372 43.0762 244.243 43.1518 243.128 43.2265C242.039 43.2994 240.962 43.3715 239.935 43.3715C238.847 43.3715 238.749 42.287 239.641 42.0869C241.323 41.6929 242.709 41.0004 243.498 40.4088C244.688 39.5183 246.274 37.246 247.761 33.8862C251.279 25.812 254.566 17.6585 257.27 10.95C257.609 10.1081 257.94 9.2889 258.26 8.49552C258.576 7.75904 258.828 7.14862 259.04 6.63623C259.624 5.22631 259.9 4.55873 260.335 4.04972L261.922 2.17356C263.012 0.890547 263.803 5.1444e-05 264.298 5.1444e-05C264.896 5.1444e-05 265.09 0.393598 265.09 0.987262C265.09 1.77744 265.09 2.37008 265.583 3.95301C265.73 4.43217 265.887 4.94544 266.054 5.48948ZM255.485 24.6994C255.878 24.7986 256.377 24.8954 260.434 24.8954C264.395 24.8954 265.09 24.7986 265.583 24.6016C265.884 24.5013 265.884 23.8099 265.486 22.622C265.212 21.7872 264.959 21.0199 264.725 20.3093C263.106 15.3877 262.381 13.1851 261.426 10.0774C261.23 9.28467 260.933 9.28467 260.335 10.6711C258.953 13.6337 257.464 17.1916 255.387 22.9199C254.989 24.0085 254.89 24.6016 255.485 24.6994Z"
          stroke-width="1" fill="white"></path>
</svg>